<svg xmlns="http://www.w3.org/2000/svg" viewBox="0 0 444 444"><defs><style>.a{fill:none;}.b{fill:#00b900;}.c{fill:#fff;}</style></defs><rect class="a" width="444" height="444"/><circle class="b" cx="222" cy="222" r="179.24"/><path class="c" d="M341.22,211.24c0-53.35-53.48-96.75-119.22-96.75s-119.22,43.4-119.22,96.75c0,47.82,42.41,87.88,99.71,95.45,3.88.84,9.16,2.56,10.5,5.88,1.2,3,.78,7.73.38,10.78,0,0-1.39,8.41-1.7,10.2-.52,3-2.39,11.79,10.33,6.43s68.66-40.43,93.67-69.22h0c17.28-18.94,25.56-38.17,25.56-59.52"/><path class="b" d="M197.78,185.46h-8.37a2.32,2.32,0,0,0-2.32,2.32v51.94a2.32,2.32,0,0,0,2.32,2.32h8.37a2.32,2.32,0,0,0,2.32-2.32V187.78a2.32,2.32,0,0,0-2.32-2.32"/><path class="b" d="M255.34,185.46H247a2.32,2.32,0,0,0-2.32,2.32v30.86l-23.8-32.15-.19-.24h0a1.85,1.85,0,0,0-.14-.14l0,0-.13-.11-.06,0-.12-.09-.07,0-.12-.07-.07,0-.14-.06-.07,0-.14,0-.08,0-.14,0h-.09l-.13,0h-8.56a2.32,2.32,0,0,0-2.32,2.32v51.94a2.32,2.32,0,0,0,2.32,2.32h8.36a2.32,2.32,0,0,0,2.33-2.32V208.87l23.83,32.19a2.45,2.45,0,0,0,.59.57l0,0,.14.09.06,0,.12.05.11,0,.07,0,.16,0h0a2.33,2.33,0,0,0,.59.08h8.37a2.32,2.32,0,0,0,2.32-2.32V187.78a2.32,2.32,0,0,0-2.32-2.32"/><path class="b" d="M177.62,229H154.9V187.78a2.32,2.32,0,0,0-2.32-2.32h-8.37a2.32,2.32,0,0,0-2.32,2.32v51.94h0a2.32,2.32,0,0,0,.65,1.61l0,0,0,0a2.29,2.29,0,0,0,1.61.65h33.41a2.32,2.32,0,0,0,2.32-2.32v-8.36a2.32,2.32,0,0,0-2.32-2.33"/><path class="b" d="M301.52,198.47a2.32,2.32,0,0,0,2.31-2.33v-8.36a2.31,2.31,0,0,0-2.31-2.32H268.11a2.32,2.32,0,0,0-1.61.65l0,0,0,0a2.3,2.3,0,0,0-.64,1.6h0v51.94h0a2.32,2.32,0,0,0,.65,1.61l0,0,0,0a2.32,2.32,0,0,0,1.61.65h33.41a2.31,2.31,0,0,0,2.31-2.32v-8.36a2.32,2.32,0,0,0-2.31-2.33H278.8v-8.78h22.72a2.31,2.31,0,0,0,2.31-2.32v-8.36a2.31,2.31,0,0,0-2.31-2.32H278.8v-8.78Z"/></svg>