<svg xmlns="http://www.w3.org/2000/svg" viewBox="0 0 444 444"><defs><style>.a{fill:none;}.b{fill:#1da1f2;}.c{fill:#fff;}</style></defs><rect class="a" width="444" height="444"/><circle class="b" cx="222" cy="222" r="179"/><path class="c" d="M189,316.42c79.39,0,122.8-65.78,122.8-122.79,0-1.88,0-3.76-.09-5.55a88.46,88.46,0,0,0,21.57-22.38,87.53,87.53,0,0,1-24.79,6.81,43.14,43.14,0,0,0,19-23.9A87.41,87.41,0,0,1,300,159.08a43.18,43.18,0,0,0-74.64,29.54,39.76,39.76,0,0,0,1.16,9.84,122.42,122.42,0,0,1-89-45.11A43.13,43.13,0,0,0,151,210.9a42.4,42.4,0,0,1-19.51-5.37v.54a43.19,43.19,0,0,0,34.63,42.33,42.79,42.79,0,0,1-11.36,1.52,41,41,0,0,1-8.15-.8,43.1,43.1,0,0,0,40.28,30,86.75,86.75,0,0,1-53.61,18.44,78.16,78.16,0,0,1-10.3-.63,120.27,120.27,0,0,0,66,19.51"/></svg>