<svg xmlns="http://www.w3.org/2000/svg" viewBox="0 0 444 444"><defs><style>.a{fill:red;}.b{fill:#fff;}.c{fill:none;}</style></defs><path class="a" d="M393.52,135.27a45,45,0,0,0-31.65-31.85C334,95.89,222,95.89,222,95.89s-111.95,0-139.87,7.53a45,45,0,0,0-31.65,31.85C43,163.37,43,222,43,222s0,58.63,7.48,86.73a45,45,0,0,0,31.65,31.85c27.92,7.53,139.87,7.53,139.87,7.53s112,0,139.87-7.53a45,45,0,0,0,31.65-31.85C401,280.63,401,222,401,222S401,163.37,393.52,135.27Z"/><polygon class="b" points="185.39 275.23 278.95 222 185.39 168.77 185.39 275.23"/><rect class="c" width="444" height="444"/></svg>